<?xml version="1.0" encoding="utf-8"?>
<!-- Generator: Adobe Illustrator 20.1.0, SVG Export Plug-In . SVG Version: 6.00 Build 0)  -->
<svg version="1.1" id="Layer_1" xmlns="http://www.w3.org/2000/svg" xmlns:xlink="http://www.w3.org/1999/xlink" x="0px" y="0px"
	 viewBox="0 0 79.8 84.8" style="enable-background:new 0 0 79.8 84.8;" xml:space="preserve">
<title>31</title>
<g>
	<path d="M11.3,0v8.9H0v75.9h79.8V8.9H68.5V0H52.1v8.9H27.7V0H11.3z M17.3,6h4.5v9.1h-4.5V6z M6,78.8V35.3h67.8v43.5H6z M58.1,6h4.5
		v9.1h-4.5V6z M52.1,14.9v6.2h16.4v-6.2h5.3v14.4H6V14.9h5.3v6.2h16.4v-6.2H52.1z"/>
	<polygon points="35.8,59.4 27.2,51.1 23.1,55.4 35.8,67.7 56.7,47.9 52.6,43.5 	"/>
</g>
</svg>
