<?xml version="1.0" encoding="utf-8"?>
<!-- Generator: Adobe Illustrator 20.1.0, SVG Export Plug-In . SVG Version: 6.00 Build 0)  -->
<svg version="1.1" id="Layer_1" xmlns="http://www.w3.org/2000/svg" xmlns:xlink="http://www.w3.org/1999/xlink" x="0px" y="0px"
	 viewBox="0 0 81.5 87.7" style="enable-background:new 0 0 81.5 87.7;" xml:space="preserve">
<g>
	<path d="M7.1,87.7h67.2c5.4,0,8.8-5.7,6.3-10.4c-3.6-6.8-9.7-11.9-17.1-14.1l-8.7-2.6c-3-0.9-4.6-4.1-3.5-7
		c0.2-0.6,0.5-1.2,0.9-1.6l6.2-7c4.1-4.7,6.1-10.9,5.4-17.1l-1-8.5C62,12.9,58.4,7.1,52.9,3.6l-0.1-0.1c-7.3-4.7-16.8-4.6-24,0.3
		l0,0c-5,3.4-8.4,8.7-9.3,14.7l-1.4,8.9c-1,6.5,0.9,13,5.3,17.9l5.9,6.6c0.4,0.5,0.7,1,0.9,1.6c1,2.9-0.6,6.1-3.5,7L18,63.2
		c-7.4,2.2-13.6,7.3-17.2,14.1C-1.7,82,1.8,87.7,7.1,87.7z"/>
</g>
</svg>
