<?xml version="1.0" encoding="utf-8"?>
<!-- Generator: Adobe Illustrator 20.1.0, SVG Export Plug-In . SVG Version: 6.00 Build 0)  -->
<svg version="1.1" id="Layer_1" xmlns="http://www.w3.org/2000/svg" xmlns:xlink="http://www.w3.org/1999/xlink" x="0px" y="0px"
	 viewBox="0 0 64 87.9" style="enable-background:new 0 0 64 87.9;" xml:space="preserve">
<title>Essential Icons</title>
<path d="M32,0L32,0C14.3,0,0,14.3,0,32c0.1,6.1,1.8,12.1,5.1,17.3c6.4,10.6,23.7,36.1,24.4,37.2c0.9,1.4,2.8,1.8,4.2,0.8
	c0.3-0.2,0.6-0.5,0.8-0.8c0.7-1.1,18-26.6,24.4-37.2c3.3-5.2,5-11.2,5.1-17.3C64,14.3,49.7,0,32,0C32,0,32,0,32,0z M53.8,46.2
	C48.9,54.4,37.1,71.9,32,79.5c-5.1-7.6-16.9-25.1-21.8-33.2C7.5,42,6.1,37.1,6,32C6,17.7,17.6,6,32,6s26,11.6,26,26
	C57.9,37.1,56.5,42,53.8,46.2z"/>
<path d="M32,15.9c-8.8,0-16,7.2-16,16s7.2,16,16,16s16-7.2,16-16S40.8,15.9,32,15.9z M32,41.9c-5.5,0-10-4.5-10-10s4.5-10,10-10
	s10,4.5,10,10S37.5,41.9,32,41.9z"/>
</svg>
