<?xml version="1.0" encoding="utf-8"?>
<!-- Generator: Adobe Illustrator 20.1.0, SVG Export Plug-In . SVG Version: 6.00 Build 0)  -->
<svg version="1.1" id="Layer_1" xmlns="http://www.w3.org/2000/svg" xmlns:xlink="http://www.w3.org/1999/xlink" x="0px" y="0px"
	 viewBox="0 0 61.5 80" style="enable-background:new 0 0 61.5 80;" xml:space="preserve">
<g>
	<path d="M36.4,27.7h7.2c0.5,0,1-0.5,1-1v-7.2c0-0.5-0.5-1-1-1h-7.2c-0.5,0-1,0.5-1,1v7.2C35.4,27.2,35.8,27.7,36.4,27.7z"/>
	<path d="M25.2,18.5h-7.2c-0.5,0-1,0.5-1,1v7.2c0,0.5,0.5,1,1,1h7.2c0.5,0,1-0.5,1-1v-7.2C26.2,18.9,25.7,18.5,25.2,18.5z"/>
	<path d="M36.4,43.1h7.2c0.5,0,1-0.5,1-1v-7.2c0-0.5-0.5-1-1-1h-7.2c-0.5,0-1,0.5-1,1v7.2C35.4,42.6,35.8,43.1,36.4,43.1z"/>
	<path d="M25.2,33.8h-7.2c-0.5,0-1,0.5-1,1v7.2c0,0.5,0.5,1,1,1h7.2c0.5,0,1-0.5,1-1v-7.2C26.2,34.3,25.7,33.8,25.2,33.8z"/>
	<path d="M25.2,49.2h-7.2c-0.5,0-1,0.5-1,1v7.2c0,0.6,0.5,1,1,1h7.2c0.5,0,1-0.4,1-1v-7.2C26.2,49.7,25.7,49.2,25.2,49.2z"/>
	<path d="M60.5,70.8h-2.1V4.1c0-0.6-0.4-1-1-1h-8.2V1c0-0.6-0.4-1-1-1H13.3c-0.5,0-1,0.4-1,1v2.1H4.1c-0.5,0-1,0.4-1,1v66.7H1
		c-0.5,0-1,0.4-1,1V79c0,0.6,0.5,1,1,1h59.5c0.6,0,1-0.4,1-1v-7.2C61.5,71.2,61.1,70.8,60.5,70.8z M9.2,9.2h4.1h34.9h4.1v61.5h-7.7
		V53.4c0-0.6-0.5-1.1-1.1-1.1h-7.1c-0.6,0-1.1,0.5-1.1,1.1v17.4H9.2V9.2z"/>
</g>
</svg>
