<?xml version="1.0" encoding="utf-8"?>
<!-- Generator: Adobe Illustrator 20.1.0, SVG Export Plug-In . SVG Version: 6.00 Build 0)  -->
<svg version="1.1" id="Layer_1" xmlns="http://www.w3.org/2000/svg" xmlns:xlink="http://www.w3.org/1999/xlink" x="0px" y="0px"
	 viewBox="0 0 95.1 87.5" style="enable-background:new 0 0 95.1 87.5;" xml:space="preserve">
<path d="M81.1,14.9H65.5v-3.2C65.5,5.2,60.2,0,53.8,0H41.2c-6.4,0-11.7,5.2-11.7,11.7v3.2H13.9C6.3,14.9,0,21.1,0,28.8v44.8
	c0,7.6,6.2,13.9,13.9,13.9h67.3c7.6,0,13.9-6.2,13.9-13.9V28.8C95,21.1,88.8,14.9,81.1,14.9z M36.4,11.7c0-2.7,2.2-4.8,4.8-4.8h12.5
	c2.7,0,4.8,2.2,4.8,4.8v3.2H36.4V11.7z M13.9,21.9h67.3c3.8,0,6.9,3.1,6.9,6.9v12c-9,2.6-19.4,4.3-30.4,5c-0.1-5.5-4.6-10-10.2-10
	s-10.1,4.5-10.2,10c-11-0.7-21.4-2.4-30.4-5v-12C6.9,25,10,21.9,13.9,21.9z M50.8,46v6.6c0,1.8-1.5,3.3-3.3,3.3s-3.3-1.5-3.3-3.3V46
	c0-1.8,1.5-3.3,3.3-3.3S50.8,44.2,50.8,46z M81.1,80.5H13.9c-3.8,0-6.9-3.1-6.9-6.9V48.1c9.1,2.5,19.5,4.1,30.3,4.7
	c0.1,5.6,4.6,10.1,10.2,10.1s10.1-4.5,10.2-10.1c10.8-0.6,21.3-2.2,30.4-4.7v25.5C88.1,77.4,85,80.5,81.1,80.5z"/>
</svg>
