<?xml version="1.0" encoding="utf-8"?>
<!-- Generator: Adobe Illustrator 20.1.0, SVG Export Plug-In . SVG Version: 6.00 Build 0)  -->
<svg version="1.1" id="Layer_1" xmlns="http://www.w3.org/2000/svg" xmlns:xlink="http://www.w3.org/1999/xlink" x="0px" y="0px"
	 viewBox="0 0 359.2 318.2" style="enable-background:new 0 0 359.2 318.2;" xml:space="preserve">
<path d="M196.2,6.6c-9.3-8.8-23.8-8.8-33.1,0L0,162.1l19.3,20.3l34.2-32.6l0.1,134.5c0,18.7,15.2,33.8,33.9,33.8l184.2,0.1
	c0,0,0,0,0.1,0c9.1,0,17.5-3.4,23.9-9.8s9.9-14.8,9.9-23.9V149.9l34.2,32.5l19.4-20.3L196.2,6.6z M201.7,290.4l-44-0.1v-70.1h44
	V290.4z M277.7,284.6c0,2.2-1,3.4-1.7,4.1s-2,1.6-4.1,1.6l-42.2,0.3v-83.8c0-7.7-6.4-14.5-14.1-14.5h-71.8
	c-7.7,0-14.1,6.8-14.1,14.5v83.6l-42.1-0.1c-3.3,0-6-2.7-6-6l-0.2-161.2l98.2-93.6l98.1,93.6V284.6z"/>
</svg>
