<?xml version="1.0" encoding="UTF-8"?>
<svg width="50px" height="50px" viewBox="0 0 50 50" version="1.1" xmlns="http://www.w3.org/2000/svg" xmlns:xlink="http://www.w3.org/1999/xlink">
    <!-- Generator: Sketch 52.4 (67378) - http://www.bohemiancoding.com/sketch -->
    <title>Group 7</title>
    <desc>Created with Sketch.</desc>
    <defs>
        <circle id="path-1" cx="25" cy="25" r="25"></circle>
    </defs>
    <g id="Page-1" stroke="none" stroke-width="1" fill="none" fill-rule="evenodd">
        <g id="Home-Copy-2" transform="translate(-20.000000, -83.000000)">
            <g id="Group-7" transform="translate(20.000000, 83.000000)">
                <mask id="mask-2" fill="white">
                    <use xlink:href="#path-1"></use>
                </mask>
                <use id="Mask" fill="#D8D8D8" xlink:href="#path-1"></use>
                <g id="noun_User_697790-(1)" mask="url(#mask-2)" fill="#9E9E9E">
                    <g transform="translate(13.000000, 12.000000)" id="Path">
                        <path d="M2.01146743,24 L20.9851399,24 C22.50981,24 23.4697875,22.4392748 22.7639217,21.1523611 C21.747475,19.2904433 20.0251625,17.894005 17.9357997,17.2916199 L15.4793867,16.5797101 C14.6323478,16.3332799 14.1805937,15.4570833 14.4911746,14.6630301 C14.5476439,14.4987432 14.6323478,14.3344564 14.7452863,14.2249318 L16.4958335,12.3082518 C17.6534534,11.021338 18.218146,9.32370715 18.0205036,7.62607626 L17.7381573,5.29867907 C17.5122802,3.51890475 16.4958335,1.93079844 14.9429287,0.97245842 L14.9146941,0.945077277 C12.853566,-0.341836462 10.171276,-0.314455318 8.13838251,1.02722071 C6.72665092,1.95817958 5.76667345,3.40938018 5.51256176,5.05224878 L5.11727692,7.48917054 C4.8349306,9.26894486 5.3713886,11.0487192 6.6137124,12.3903952 L8.27955567,14.1975507 C8.39249419,14.3344564 8.47719809,14.4713621 8.53366735,14.635649 C8.81601367,15.4297021 8.36425956,16.3058987 7.54545524,16.552329 L5.08904228,17.2916199 C2.99967954,17.894005 1.24913237,19.2904433 0.232685632,21.1523611 C-0.47318016,22.4392748 0.515031949,24 2.01146743,24 Z"></path>
                    </g>
                </g>
            </g>
        </g>
    </g>
</svg>