<?xml version="1.0" encoding="utf-8"?>
<!-- Generator: Adobe Illustrator 20.1.0, SVG Export Plug-In . SVG Version: 6.00 Build 0)  -->
<svg version="1.1" id="Layer_1" xmlns="http://www.w3.org/2000/svg" xmlns:xlink="http://www.w3.org/1999/xlink" x="0px" y="0px"
	 viewBox="0 0 420.4 420.4" style="enable-background:new 0 0 420.4 420.4;" xml:space="preserve">
<g>
	<path d="M172.5,169.5L149.6,249c-1.7,5.9-0.1,12.3,4.2,16.7c3.2,3.3,7.6,5,12.1,5c1.5,0,3-0.2,4.5-0.6l80.3-22.1
		c2.8-0.8,5.4-2.3,7.5-4.4L403.7,98.1c10.8-10.8,16.7-25.1,16.7-40.3s-5.9-29.5-16.7-40.3l-0.8-0.8C392.1,5.9,377.8,0,362.6,0
		s-29.5,5.9-40.3,16.7L176.8,162.2C174.7,164.2,173.2,166.7,172.5,169.5z M203.9,183.1L346.4,40.7c4.3-4.3,10.1-6.7,16.3-6.7
		c6.1,0,11.9,2.4,16.3,6.7l0.8,0.8c4.3,4.3,6.7,10.1,6.7,16.3s-2.4,11.9-6.7,16.3L237.4,216.4l-46.7,12.9L203.9,183.1z"/>
	<path d="M56.5,420.4h255.7c31.4,0,56.8-25.1,56.8-56.5V241c0-9.4-7.6-17-17-17s-17,7.6-17,17v122.9c0,12.7-10.1,22.5-22.8,22.5
		H56.5c-12.7,0-22.5-9.9-22.5-22.5V108.2c0-12.7,9.9-22.8,22.5-22.8h122.8c9.4,0,17-7.6,17-17c0-9.4-7.6-17-17-17H56.5
		C25.1,51.4,0,76.7,0,108.2v255.7C0,395.3,25.1,420.4,56.5,420.4z"/>
</g>
</svg>
